#!OML:ASF E:\motion texture\Top Level 1\Subject 1\Session 1\male.ASF
:FULLY-SPECIFIED
:DEGREES
413
root -25.5361 17.8208 4.43094 119.899 -79.3993 -112.892
lowerback -2.3559 4.68579 8.90777
upperback -2.87054 6.02858 3.01789
thorax -1.07508 2.83154 -1.71178
lowerneck -19.5476 0.634245 -2.49307
upperneck 21.4657 0.885934 2.60576
head 10.0432 0.470939 1.45221
rclavicle 1.24526e-014 4.96962e-015
rhumerus -11.5368 15.3223 -83.0242
rradius 61.4835
rwrist 8.70165
rhand -18.2461 -29.3081
rfingers 7.12502
rthumb 8.03286 -59.1354
lclavicle 1.24526e-014 4.96962e-015
lhumerus -40.5475 12.5648 83.0085
lradius 42.2129
lwrist -14.0241
lhand -8.81055 28.6258
lfingers 7.12502
lthumb 17.1288 57.8908
rfemur 0.578695 4.81785 35.5249
rtibia 17.9684
rfoot -13.5972 -9.9835
rtoes 1.93363
lfemur -32.3097 1.25809 -3.54255
ltibia 25.4346
lfoot -2.78263 5.65334
ltoes -12.6962
414
root -25.715 17.8038 4.43822 120.369 -79.4013 -113.322
lowerback -2.42081 4.78988 8.88835
upperback -2.89804 6.16304 2.91905
thorax -1.04605 2.89964 -1.79266
lowerneck -19.5862 0.602899 -2.55783
upperneck 21.4577 0.849587 2.66412
head 10.0479 0.45645 1.4788
rclavicle 4.21509e-014 1.51076e-014
rhumerus -11.4837 15.1882 -82.8697
rradius 62.6443
rwrist 8.6531
rhand -18.3114 -29.3224
rfingers 7.12502
rthumb 7.96976 -59.1521
lclavicle 4.21509e-014 1.51076e-014
lhumerus -41.0537 13.3563 82.2051
lradius 42.2625
lwrist -13.6857
lhand -8.85319 29.2681
lfingers 7.12502
lthumb 17.0878 58.5366
rfemur 0.783389 4.76904 35.4174
rtibia 18.6123
rfoot -13.691 -9.98447
rtoes 0.912144
lfemur -32.2331 0.854363 -3.48349
ltibia 24.3397
lfoot -2.59835 5.82941
ltoes -12.4476
415
root -25.8949 17.7873 4.44583 120.815 -79.4201 -113.741
lowerback -2.48297 4.88744 8.84942
upperback -2.91863 6.28929 2.82031
thorax -1.01373 2.96443 -1.86286
lowerneck -19.6185 0.570929 -2.62372
upperneck 21.4514 0.811542 2.726
head 10.0521 0.441425 1.50655
rclavicle 2.8276e-014 1.03368e-014
rhumerus -11.462 15.035 -82.7344
rradius 63.7664
rwrist 8.60899
rhand -18.3815 -29.3359
rfingers 7.12502
rthumb 7.90215 -59.1682
lclavicle 2.8276e-014 1.03368e-014
lhumerus -41.5349 14.0977 81.4279
lradius 42.3213
lwrist -13.3847
lhand -8.91292 29.8857
lfingers 7.12502
lthumb 17.0303 59.1592
rfemur 0.950357 4.70149 35.284
rtibia 19.3274
rfoot -13.7289 -9.97286
rtoes -0.0794752
lfemur -32.1302 0.450689 -3.45664
ltibia 23.3481
lfoot -2.40428 5.98897
ltoes -12.1741
416
root -26.0757 17.7715 4.45375 121.239 -79.4569 -114.151
lowerback -2.54259 4.97776 8.78994
upperback -2.93185 6.4064 2.72156
thorax -0.977865 3.02551 -1.92198
lowerneck -19.6459 0.539439 -2.68888
upperneck 21.4474 0.773333 2.78926
head 10.0563 0.426472 1.53462
rclavicle -2.75425e-015 -3.18055e-014
rhumerus -11.4715 14.8661 -82.6201
rradius 64.8499
rwrist 8.57078
rhand -18.4527 -29.3474
rfingers 7.12502
rthumb 7.83346 -59.1823
lclavicle -2.75425e-015 -3.18055e-014
lhumerus -41.9869 14.7901 80.6814
lradius 42.3867
lwrist -13.1198
lhand -8.99574 30.471
lfingers 7.12502
lthumb 16.9505 59.7514
rfemur 1.0771 4.6145 35.1235
rtibia 20.116
rfoot -13.7032 -9.9522
rtoes -1.00776
lfemur -32.0039 0.0520893 -3.4666
ltibia 22.464
lfoot -2.20571 6.12784
ltoes -11.8727
417
root -26.2573 17.7564 4.46195 121.652 -79.513 -114.565
lowerback -2.59759 5.06096 8.70863
upperback -2.93795 6.51493 2.6224
thorax -0.94003 3.08309 -1.96999
lowerneck -19.6659 0.509011 -2.75248
upperneck 21.4443 0.735593 2.85333
head 10.0595 0.411872 1.56273
rclavicle 1.47893e-014 -9.34288e-015
rhumerus -11.5116 14.6831 -82.5282
rradius 65.8922
rwrist 8.53906
rhand -18.5255 -29.3597
rfingers 7.12502
rthumb 7.76313 -59.1972
lclavicle 1.47893e-014 -9.34288e-015
lhumerus -42.4078 15.4327 79.9703
lradius 42.4566
lwrist -12.8901
lhand -9.09747 31.0207
lfingers 7.12502
lthumb 16.8526 60.3094
rfemur 1.16368 4.50743 34.9336
rtibia 20.9778
rfoot -13.6108 -9.9313
rtoes -1.87818
lfemur -31.8528 -0.337423 -3.51812
ltibia 21.6873
lfoot -2.00586 6.24311
ltoes -11.5409
418
root -26.4397 17.7422 4.47045 122.05 -79.5886 -114.977
lowerback -2.64959 5.1358 8.60658
upperback -2.93771 6.61305 2.52289
thorax -0.900329 3.13618 -2.0074
lowerneck -19.6772 0.479851 -2.81601
upperneck 21.4437 0.698637 2.91945
head 10.0619 0.397759 1.59161
rclavicle 5.98179e-014 -2.10712e-014
rhumerus -11.5817 14.4958 -82.4597
rradius 66.8925
rwrist 8.51254
rhand -18.5994 -29.3686
rfingers 7.12502
rthumb 7.6918 -59.2087
lclavicle 5.98179e-014 -2.10712e-014
lhumerus -42.7982 16.0261 79.2971
lradius 42.5306
lwrist -12.6932
lhand -9.21615 31.5358
lfingers 7.12502
lthumb 16.7384 60.8342
rfemur 1.20719 4.37751 34.7139
rtibia 21.9134
rfoot -13.4547 -9.9179
rtoes -2.68877
lfemur -31.6793 -0.713183 -3.61415
ltibia 21.019
lfoot -1.80838 6.32954
ltoes -11.1854
